<svg width="1023" height="100" viewBox="0 0 1023 100" fill="none" xmlns="http://www.w3.org/2000/svg">
<g clip-path="url(#clip0_234_77)">
<g filter="url(#filter0_d_234_77)">
<path d="M341 30C341 18.9543 349.954 10 361 10H661C672.046 10 681 18.9543 681 30V70C681 81.0457 672.046 90 661 90H361C349.954 90 341 81.0457 341 70V30Z" fill="url(#paint0_linear_234_77)"/>
</g>
<path d="M443.116 40.4141H427.108V42.6406H429.874V45.4531H427.249V47.6797H442.975V45.4531H440.327V42.6406H443.116V40.4141ZM425.397 51.1484H444.85V48.8047H425.397V51.1484ZM427.647 54.5234H439.53V55.6016H427.67V61.0156H443.045V58.8125H430.6V57.6406H442.483V52.3672H427.647V54.5234ZM432.874 45.4531V42.6406H437.327V45.4531H432.874ZM464.467 39.8516H461.631V45.8984H459.78V40.2266H456.991V55.2266H459.78V48.3125H461.631V55.6719H464.467V39.8516ZM446.983 43.9062H452.233V45.9922H447.006V52.7422H448.483C451.647 52.7422 453.745 52.6719 456.241 52.2266L455.983 49.8594C453.967 50.2461 452.221 50.3633 449.889 50.3867V48.1953H455.116V41.5625H446.983V43.9062ZM450.006 60.7812H465.006V58.3906H453.006V54.1719H450.006V60.7812ZM472.624 41.3281C469.354 41.3281 466.987 44.2695 466.999 48.9219C466.987 53.6094 469.354 56.5391 472.624 56.5391C475.881 56.5391 478.237 53.6094 478.249 48.9219C478.237 44.2695 475.881 41.3281 472.624 41.3281ZM469.881 48.9219C469.881 45.7578 470.995 44.0234 472.624 44.0234C474.288 44.0234 475.377 45.7578 475.389 48.9219C475.377 52.0977 474.288 53.832 472.624 53.8203C470.995 53.832 469.881 52.0977 469.881 48.9219ZM480.709 61.1562H483.709V50.3516H486.85V47.8672H483.709V39.8281H480.709V61.1562ZM505.483 39.8281H502.459V61.2031H505.483V39.8281ZM488.256 48.9219C488.245 53.6094 490.624 56.5391 493.905 56.5391C497.116 56.5391 499.506 53.6094 499.506 48.9219C499.506 44.2695 497.116 41.3281 493.905 41.3281C490.624 41.3281 488.245 44.2695 488.256 48.9219ZM491.139 48.9219C491.127 45.7578 492.241 44.0234 493.905 44.0234C495.522 44.0234 496.612 45.7578 496.624 48.9219C496.612 52.0977 495.522 53.832 493.905 53.8203C492.241 53.832 491.127 52.0977 491.139 48.9219ZM532.389 39.8281H529.506V61.1562H532.389V39.8281ZM514.553 56.3984H516.03C519.159 56.3984 521.303 56.293 523.717 55.8125L523.483 53.375C521.491 53.7734 519.756 53.9023 517.483 53.9258V44.6328H522.709V42.2422H514.553V56.3984ZM521.256 50.0469H525.077V60.1953H527.866V40.2031H525.077V47.6094H521.256V50.0469ZM554.163 56.2109H545.842V51.8516H551.983V41.3984H536.702V51.8516H542.866V56.2109H534.639V58.6719H554.163V56.2109ZM539.655 49.5078V43.7891H549.03V49.5078H539.655ZM573.241 39.8516H570.241V55.4141H573.241V39.8516ZM555.311 50.1406L556.858 52.5078C559.354 51.6523 561.053 49.8945 562.014 47.7148C562.963 49.7422 564.616 51.3359 567.03 52.1328L568.553 49.7891C565.049 48.6641 563.538 45.9102 563.561 43.0859V41.0234H560.444V43.0859C560.444 45.9805 558.885 48.9453 555.311 50.1406ZM558.944 60.7812H573.803V58.3906H561.967V53.9141H558.944V60.7812ZM588.288 42.0547H584.022V39.7344H580.999V42.0547H576.71V44.3984H580.999C580.975 46.8125 579.393 49.25 575.983 50.2344L577.389 52.5547C579.909 51.8281 581.62 50.2695 582.545 48.3008C583.518 50.0352 585.217 51.3828 587.655 51.9922L589.038 49.6953C585.604 48.8164 584.01 46.5898 583.975 44.3984H588.288V42.0547ZM579.475 57.0781C579.475 59.668 582.288 61.168 586.811 61.1562C591.358 61.168 594.159 59.668 594.17 57.0781C594.159 54.5234 591.358 53.082 586.811 53.0703C582.288 53.082 579.475 54.5234 579.475 57.0781ZM582.452 57.0781C582.452 55.9414 583.987 55.3672 586.811 55.3672C589.694 55.3672 591.182 55.9414 591.194 57.0781C591.182 58.25 589.694 58.8828 586.811 58.8828C583.987 58.8828 582.452 58.25 582.452 57.0781ZM587.655 47.9375H591.124V52.7188H594.1V39.8281H591.124V45.5469H587.655V47.9375Z" fill="white"/>
</g>
<defs>
<filter id="filter0_d_234_77" x="333" y="6" width="356" height="96" filterUnits="userSpaceOnUse" color-interpolation-filters="sRGB">
<feFlood flood-opacity="0" result="BackgroundImageFix"/>
<feColorMatrix in="SourceAlpha" type="matrix" values="0 0 0 0 0 0 0 0 0 0 0 0 0 0 0 0 0 0 127 0" result="hardAlpha"/>
<feOffset dy="4"/>
<feGaussianBlur stdDeviation="4"/>
<feComposite in2="hardAlpha" operator="out"/>
<feColorMatrix type="matrix" values="0 0 0 0 0 0 0 0 0 0 0 0 0 0 0 0 0 0 0.25 0"/>
<feBlend mode="normal" in2="BackgroundImageFix" result="effect1_dropShadow_234_77"/>
<feBlend mode="normal" in="SourceGraphic" in2="effect1_dropShadow_234_77" result="shape"/>
</filter>
<linearGradient id="paint0_linear_234_77" x1="341" y1="50" x2="681" y2="50" gradientUnits="userSpaceOnUse">
<stop stop-color="#304FFE"/>
<stop offset="1" stop-color="#2962FF"/>
</linearGradient>
<clipPath id="clip0_234_77">
<rect width="1024" height="100" fill="white" transform="translate(-1)"/>
</clipPath>
</defs>
</svg>
