<svg width="99" height="24" viewBox="0 0 99 24" fill="none" xmlns="http://www.w3.org/2000/svg">
<path d="M0.90625 23H5.59375V15.625H9.65625C14.875 15.625 17.875 12.5156 17.875 8C17.875 3.54688 14.9219 0.375 9.78125 0.375H0.90625V23ZM5.59375 11.8438V4.21875H8.90625C11.6875 4.23438 13.0469 5.75 13.0312 8C13.0469 10.2812 11.6875 11.8438 8.90625 11.8438H5.59375ZM20.8438 23H35.2812V19.125H25.5312V0.375H20.8438V23ZM42.6875 23L44.3906 17.7812H52.5781L54.2812 23H59.3125L51.5 0.375H45.4688L37.625 23H42.6875ZM45.5781 14.125L48.4062 5.46875H48.5625L51.3906 14.125H45.5781ZM80.75 0.375H76.0938V14.75H75.875L66 0.375H61.875V23H66.5625V8.625H66.75L76.6875 23H80.75V0.375ZM87.1875 23.2812C88.5781 23.2812 89.7812 22.1094 89.7812 20.6562C89.7812 19.2188 88.5781 18.0469 87.1875 18.0625C85.7188 18.0469 84.5312 19.2188 84.5625 20.6562C84.5312 22.1094 85.7188 23.2812 87.1875 23.2812ZM98.2812 0.375H93.5938V23H98.2812V0.375Z" fill="#304FFE"/>
</svg>
